# xmcd
#
# Track frame offsets:
#	150
#	16565
#	32505
#	56070
#
# Disc length: 1020 seconds
#
# Revision: 0
# Processed by: cddbd v1.5.1PL0 Copyright (c) Steve Scherf et al.
# Submitted via: audiograbber 1.83.01
#
DISCID=2203fa04
DTITLE=Winger - Headed for a Heartbreak (M-CD)
DYEAR=1991
DGENRE=Rock
TTITLE0=Headed for a Heartbreak (´91 Remix)
TTITLE1=Little dirty blonde
TTITLE2=Headed for a Heartbreak (Album)
TTITLE3=Never
EXTD=by R.F.
EXTT0=
EXTT1=
EXTT2=
EXTT3=
PLAYORDER=
